<?xml version="1.0" encoding="utf-8"?>
<!-- Generator: Adobe Illustrator 15.1.0, SVG Export Plug-In . SVG Version: 6.00 Build 0)  -->
<!DOCTYPE svg PUBLIC "-//W3C//DTD SVG 1.1//EN" "http://www.w3.org/Graphics/SVG/1.1/DTD/svg11.dtd">
<svg version="1.1" id="Layer_1" xmlns="http://www.w3.org/2000/svg" xmlns:xlink="http://www.w3.org/1999/xlink" x="0px" y="0px"
	 width="114.201px" height="38.031px" viewBox="0 0 114.201 38.031" enable-background="new 0 0 114.201 38.031"
	 xml:space="preserve">
<g>
	<path fill="#E64C3C" d="M2.536,11.963C4.562,9.66,7.282,8.51,10.693,8.51c1.03,0.074,2.019,0.236,2.97,0.486
		c0.952,0.248,1.78,0.666,2.484,1.252c0.705,0.586,1.057,1.357,1.057,2.318c0,0.711-0.205,1.326-0.617,1.846
		c-0.413,0.521-0.958,0.799-1.638,0.836c-0.107,0-0.21,0.025-0.31,0.076c-0.399-0.043-1.058-0.227-1.975-0.549
		c-0.916-0.322-1.65-0.482-2.2-0.482c-1.34,0-2.412,0.473-3.209,1.416c-0.799,0.941-1.197,2.184-1.197,3.729
		c0,2.328,0.816,3.875,2.452,4.637c0.342,0.15,0.917,0.279,1.721,0.383c1.03-0.066,1.976-0.258,2.836-0.57
		c0.137-0.037,0.393-0.123,0.767-0.256c0.375-0.135,0.644-0.201,0.805-0.201c0.462,0,0.891,0.123,1.288,0.367
		c0.396,0.246,0.707,0.576,0.936,0.988c0.228,0.412,0.341,0.854,0.341,1.32c0,1.734-1.519,2.988-4.555,3.764
		c-1.16,0.205-2.068,0.309-2.722,0.309c-1.417,0-2.725-0.287-3.925-0.857s-2.247-1.365-3.138-2.381
		c-0.892-1.018-1.58-2.166-2.062-3.445C0.317,22.215,0.051,20.863,0,19.441c0.051-1.492,0.3-2.898,0.75-4.221
		C1.198,13.896,1.794,12.812,2.536,11.963z"/>
	<path fill="#E64C3C" d="M19.035,26.723V3.146c0-0.873,0.287-1.615,0.861-2.229C20.471,0.309,21.182,0,22.03,0
		c0.886,0,1.605,0.305,2.157,0.914c0.553,0.607,0.83,1.354,0.83,2.232v6.861h0.084c1.779-1,3.475-1.498,5.091-1.498
		c1.41,0,2.678,0.256,3.805,0.768c1.125,0.512,2.014,1.297,2.663,2.357s0.975,2.371,0.975,3.932v11.156
		c0,0.875-0.282,1.605-0.844,2.191c-0.562,0.586-1.29,0.879-2.188,0.879c-0.85,0-1.546-0.295-2.093-0.885
		c-0.545-0.59-0.818-1.316-0.818-2.186v-9.508c0-1.074-0.301-1.943-0.903-2.607c-0.602-0.666-1.424-0.996-2.467-0.996
		c-0.992,0-1.791,0.332-2.396,1c-0.605,0.67-0.907,1.535-0.907,2.604v9.508c0,0.875-0.276,1.605-0.83,2.191
		c-0.552,0.586-1.271,0.879-2.157,0.879c-0.854,0-1.568-0.295-2.139-0.885S19.035,27.592,19.035,26.723z"/>
	<path fill="#E64C3C" d="M41.569,13.461c0.8-1.441,1.86-2.609,3.183-3.5c1.323-0.893,2.755-1.377,4.296-1.451
		c1.31,0,2.395,0.203,3.252,0.611c0.857,0.408,1.602,0.982,2.232,1.725c0.244-0.611,0.614-1.076,1.113-1.396s1.046-0.48,1.638-0.48
		c0.831,0,1.537,0.279,2.12,0.836c0.583,0.561,0.876,1.328,0.876,2.309v14.609c0,0.742-0.237,1.42-0.711,2.033
		c-0.476,0.609-1.134,0.957-1.976,1.037c-0.848,0-1.532-0.211-2.05-0.635s-0.854-0.838-1.01-1.242
		c-1.198,1.508-2.898,2.262-5.102,2.262c-1.858,0-3.486-0.51-4.881-1.531c-1.394-1.021-2.471-2.359-3.229-4.02
		s-1.175-3.416-1.25-5.271C40.159,17.129,40.658,15.164,41.569,13.461z M50.162,14.293c-1.248,0-2.232,0.488-2.953,1.463
		s-1.106,2.176-1.155,3.6c0,1.396,0.372,2.584,1.118,3.566c0.746,0.98,1.742,1.471,2.99,1.471c0.874,0,1.624-0.221,2.251-0.66
		c0.627-0.441,1.098-1.047,1.414-1.811c0.314-0.766,0.473-1.619,0.473-2.566c0-1.447-0.362-2.654-1.086-3.617
		C52.489,14.773,51.473,14.293,50.162,14.293z"/>
	<path fill="#E64C3C" d="M65.429,14.648c-1.99,0-2.985-0.945-2.985-2.834c0-0.963,0.298-1.648,0.894-2.064
		c0.596-0.414,1.293-0.623,2.092-0.623h0.805V5.064c0-0.791,0.28-1.477,0.838-2.053c0.559-0.578,1.303-0.867,2.232-0.867
		c0.918,0,1.631,0.295,2.145,0.887c0.512,0.588,0.767,1.291,0.767,2.109v3.986h1.647c2.096,0,3.145,0.922,3.145,2.762
		c0,0.879-0.268,1.559-0.805,2.041c-0.537,0.479-1.265,0.719-2.18,0.719h-1.808v11.924c0,1.006-0.294,1.793-0.886,2.365
		c-0.588,0.57-1.367,0.855-2.334,0.855c-0.849-0.08-1.521-0.416-2.018-1.006c-0.495-0.59-0.744-1.277-0.744-2.064V14.648H65.429z"/>
	<path fill="#E64C3C" d="M81.667,14.648c-1.99,0-2.984-0.945-2.984-2.834c0-0.963,0.297-1.648,0.893-2.064
		c0.596-0.414,1.293-0.623,2.092-0.623h0.805V5.064c0-0.791,0.279-1.477,0.838-2.053c0.559-0.578,1.303-0.867,2.233-0.867
		c0.916,0,1.631,0.295,2.143,0.887c0.511,0.588,0.769,1.291,0.769,2.109v3.986H90.1c2.098,0,3.146,0.922,3.146,2.762
		c0,0.879-0.269,1.559-0.806,2.041c-0.536,0.479-1.263,0.719-2.18,0.719h-1.806v11.924c0,1.006-0.296,1.793-0.886,2.365
		c-0.589,0.57-1.368,0.855-2.335,0.855c-0.848-0.08-1.521-0.416-2.018-1.006c-0.496-0.59-0.744-1.277-0.744-2.064V14.648H81.667z"/>
	<path fill="#E64C3C" d="M95.649,13.76c-0.411-0.91-0.617-1.588-0.617-2.031c0-0.811,0.275-1.475,0.828-1.988
		s1.246-0.771,2.082-0.771c1.529,0,2.552,0.742,3.07,2.227l3.528,9.088l3.529-8.469c0.712-1.896,1.731-2.846,3.061-2.846
		c0.873,0,1.604,0.279,2.19,0.842c0.585,0.561,0.88,1.254,0.88,2.078c0,0.592-0.153,1.27-0.459,2.029l-9.275,21.547
		c-0.704,1.711-1.754,2.566-3.146,2.566c-1.572,0-2.545-0.934-2.92-2.801c0.118-0.705,0.3-1.344,0.543-1.918l2.452-5.709
		L95.649,13.76z"/>
</g>
</svg>
