<?xml version="1.0" encoding="utf-8"?>
<!-- Generator: Adobe Illustrator 15.1.0, SVG Export Plug-In . SVG Version: 6.00 Build 0)  -->
<!DOCTYPE svg PUBLIC "-//W3C//DTD SVG 1.1//EN" "http://www.w3.org/Graphics/SVG/1.1/DTD/svg11.dtd">
<svg version="1.1" id="Layer_1" xmlns="http://www.w3.org/2000/svg" xmlns:xlink="http://www.w3.org/1999/xlink" x="0px" y="0px"
	 width="149.984px" height="184.882px" viewBox="0 0 149.984 184.882" enable-background="new 0 0 149.984 184.882"
	 xml:space="preserve">
<g>
	<g>
		<g>
			<path fill="#414042" d="M126.964,81.734c-7.086,0-13.171,4.307-15.788,10.436h-0.009c-0.628,1.309-1.378,2.535-2.137,3.754
				c1.487,0.561,2.945,1.195,4.348,1.98c5.057,2.832,14.518,8.93,23.166,18.689c2.023-2.982,3.852-6.115,5.435-9.385
				c0.402-0.73,0.755-1.486,1.057-2.279c0.059-0.135,0.124-0.266,0.181-0.408c0.03-0.061,0.037-0.127,0.029-0.188
				c0.568-1.711,0.881-3.537,0.881-5.438C144.126,89.42,136.443,81.734,126.964,81.734z"/>
			<path fill="#414042" d="M50.491,107.074c0,0,0.041-0.023,0.046-0.027c-9.849-7.369-16.252-19.098-16.252-32.344
				c0-22.322,18.098-40.416,40.423-40.416c15.977,0,29.785,9.273,36.351,22.732c2.543,6.291,8.704,10.725,15.905,10.725
				c9.479,0,17.162-7.686,17.162-17.16c0-2.877-0.713-5.586-1.969-7.971c-0.051-0.141-0.105-0.279-0.174-0.414
				C129.898,17.225,104.312,0,74.708,0C33.446,0,0,33.447,0,74.703c0,41.266,33.446,74.709,74.708,74.709
				c2.727,0,2.755,0.092,5.411-0.191C78.561,145.678,76.22,122.854,50.491,107.074z"/>
		</g>
		<path fill="#E64C3C" d="M149.982,157.549c-0.068-7.346-2.403-14.488-5.643-21.027c-2.891-5.773-6.551-11.137-10.553-16.193
			c-20.104-22.715-39.271-24.01-42.975-23.91c39.377,27.844,35.767,58.959,35.767,58.959s-13.677-37.279-45.996-57.586
			C79.985,97.822,69.892,97.406,59,105.1c34.096,14.891,31.168,51.463,40.295,64.83c3.121,4.449,6.769,8.709,11.507,11.482
			c5.053,2.955,11.119,4.061,16.896,3.17c6.095-0.889,11.871-3.971,15.885-8.664C147.988,170.91,150.06,164.154,149.982,157.549z"/>
	</g>
</g>
</svg>
